# xmcd
#
# Track frame offsets: 
#        150
#        14239
#        28248
#        43537
#        54498
#        65362
#        77863
#        96022
#        104949
#        115087
#
# Disc length: 1744 seconds
#
# Revision: 0
# Processed by: cddbd v1.5.1PL2 Copyright (c) Steve Scherf et al.
# Submitted via: ExactAudioCopy v0.95b4
#
DISCID=8a06ce0a
DTITLE=George Thorogood and The Destroyers - Better Than The Rest (tap
DTITLE=e)
DYEAR=1979
DGENRE=
TTITLE0=In The Night Time
TTITLE1=Goodbye Baby
TTITLE2=Howlin' For My Darling
TTITLE3=My Weakness
TTITLE4=Huckle Up Baby
TTITLE5=I'm Ready
TTITLE6=Nadine
TTITLE7=My Way
TTITLE8=You're Gonna Miss Me
TTITLE9=Worried About My Baby
EXTD=
EXTT0=
EXTT1=
EXTT2=
EXTT3=
EXTT4=
EXTT5=
EXTT6=
EXTT7=
EXTT8=
EXTT9=
PLAYORDER=
